<svg xmlns="http://www.w3.org/2000/svg" viewBox="-115 -115 230 230">
<polygon points="0.0,-100.0 0.0,0.0 -86.6,-50.0" fill="#2fb576"/>
<polygon points="0.0,-100.0 86.6,-50.0 0.0,0.0" fill="#5fdda2"/>
<polygon points="-86.6,-50.0 0.0,0.0 0.0,100.0" fill="#23a765"/>
<polygon points="-86.6,-50.0 0.0,100.0 -86.6,50.0" fill="#1b8f55"/>
<polygon points="0.0,0.0 86.6,-50.0 86.6,50.0" fill="#3ec6e0"/>
<polygon points="0.0,0.0 86.6,50.0 0.0,100.0" fill="#1ba6c8"/>
<line x1="0.0" y1="0.0" x2="-86.6" y2="-50.0" stroke="#ffffff" stroke-width="6.5" stroke-linecap="round"/>
<line x1="0.0" y1="0.0" x2="86.6" y2="-50.0" stroke="#ffffff" stroke-width="6.5" stroke-linecap="round"/>
<line x1="0.0" y1="0.0" x2="0.0" y2="100.0" stroke="#ffffff" stroke-width="6.5" stroke-linecap="round"/>
<polygon points="0.0,-100.0 86.6,-50.0 86.6,50.0 0.0,100.0 -86.6,50.0 -86.6,-50.0" fill="none" stroke="#ffffff" stroke-width="6.5" stroke-linejoin="round"/>
<polygon points="0.0,-76.0 0.0,-24.0 -45.0,-50.0" fill="#2ab8d4"/>
<polygon points="0.0,-76.0 45.0,-50.0 0.0,-24.0" fill="#8fe9f5"/>
<polygon points="0.0,-76.0 45.0,-50.0 0.0,-24.0 -45.0,-50.0" fill="none" stroke="#ffffff" stroke-width="4.5" stroke-linejoin="round"/>
<path d="M -69.3 -20.0 L -19.1 9.0 L -19.1 51.0 L -52.0 32.0 L -52.0 10.0 L -32.9 21.0" fill="none" stroke="#ffffff" stroke-width="9.0" stroke-linecap="square" stroke-linejoin="miter"/>
<path d="M 12.1 79.0 L 34.6 60.0 L 57.2 27.0 L 69.3 -2.0" fill="none" stroke="#ffffff" stroke-width="15.0" stroke-linecap="round" stroke-linejoin="round"/>
<polygon points="83.8,-36.8 88.0,5.8 50.6,-9.8" fill="#ffffff" stroke="#ffffff" stroke-width="6" stroke-linejoin="round"/>
<path d="M 12.1 79.0 L 34.6 60.0 L 57.2 27.0 L 69.3 -2.0" fill="none" stroke="#2ecc71" stroke-width="8.0" stroke-linecap="round" stroke-linejoin="round"/>
<polygon points="79.3,-26.0 82.2,3.4 56.4,-7.4" fill="#2ecc71"/>
</svg>